<svg data-v-423bf9ae="" xmlns="http://www.w3.org/2000/svg" viewBox="0 0 197.22275095500754 60" class="font"><!----><!----><!----><g data-v-423bf9ae="" id="574fc700-a71f-4116-a1d1-f6d77a170413" fill="white" transform="matrix(5.591798933804512,0,0,5.591798933804512,-10.959928653377943,-16.663560452555387)"><path d="M6.59 7.70L10.04 7.70L9.90 8.28L9.90 8.28Q9.44 10.25 8.50 11.47L8.50 11.47L8.50 11.47Q6.88 13.58 4.83 13.58L4.83 13.58L4.83 13.58Q2.80 13.58 2.13 11.47L2.13 11.47L2.13 11.47Q1.96 10.93 1.96 10.23L1.96 10.23L1.96 10.23Q1.96 9.37 2.21 8.28L2.21 8.28L2.21 8.28Q2.68 6.28 3.61 5.09L3.61 5.09L3.61 5.09Q5.25 2.98 7.28 2.98L7.28 2.98L7.28 2.98Q9.32 2.98 9.98 5.09L9.98 5.09L8.75 5.62L8.68 5.62L8.68 5.62Q8.29 4.14 7.01 4.14L7.01 4.14L7.01 4.14Q5.76 4.14 4.66 5.62L4.66 5.62L4.66 5.62Q3.97 6.55 3.58 8.28L3.58 8.28L3.58 8.28Q3.34 9.37 3.34 10.12L3.34 10.12L3.34 10.12Q3.34 10.59 3.43 10.94L3.43 10.94L3.43 10.94Q3.83 12.41 5.11 12.41L5.11 12.41L5.11 12.41Q6.36 12.41 7.45 10.94L7.45 10.94L7.45 10.94Q8.01 10.18 8.39 8.86L8.39 8.86L5.81 8.86L5.82 8.79L6.59 7.70ZM18.93 10.20L19.00 10.20L19.00 10.20Q18.72 10.84 18.24 11.47L18.24 11.47L18.24 11.47Q16.62 13.58 14.57 13.58L14.57 13.58L14.57 13.58Q12.53 13.58 11.87 11.47L11.87 11.47L11.87 11.47Q11.70 10.93 11.70 10.23L11.70 10.23L11.70 10.23Q11.70 9.37 11.95 8.28L11.95 8.28L11.95 8.28Q12.41 6.28 13.34 5.09L13.34 5.09L13.34 5.09Q14.98 2.98 17.01 2.98L17.01 2.98L17.01 2.98Q19.06 2.98 19.71 5.09L19.71 5.09L18.48 5.62L18.42 5.62L18.42 5.62Q18.02 4.14 16.75 4.14L16.75 4.14L16.75 4.14Q15.48 4.14 14.40 5.62L14.40 5.62L14.40 5.62Q13.84 6.38 13.47 7.70L13.47 7.70L17.55 7.70L17.54 7.77L16.78 8.86L13.20 8.86L13.20 8.86Q13.07 9.58 13.07 10.13L13.07 10.13L13.07 10.13Q13.07 10.60 13.17 10.94L13.17 10.94L13.17 10.94Q13.59 12.41 14.84 12.41L14.84 12.41L14.84 12.41Q16.11 12.41 17.19 10.94L17.19 10.94L18.93 10.20ZM28.27 10.20L28.33 10.20L28.33 10.20Q28.06 10.84 27.58 11.47L27.58 11.47L27.58 11.47Q25.96 13.58 23.91 13.58L23.91 13.58L23.91 13.58Q21.87 13.58 21.21 11.47L21.21 11.47L21.21 11.47Q21.03 10.93 21.03 10.23L21.03 10.23L21.03 10.23Q21.03 9.37 21.29 8.28L21.29 8.28L21.29 8.28Q21.75 6.28 22.68 5.09L22.68 5.09L22.68 5.09Q24.32 2.98 26.35 2.98L26.35 2.98L26.35 2.98Q28.40 2.98 29.05 5.09L29.05 5.09L27.82 5.62L27.75 5.62L27.75 5.62Q27.36 4.14 26.09 4.14L26.09 4.14L26.09 4.14Q24.81 4.14 23.73 5.62L23.73 5.62L23.73 5.62Q23.18 6.38 22.80 7.70L22.80 7.70L26.89 7.70L26.88 7.77L26.11 8.86L22.54 8.86L22.54 8.86Q22.41 9.58 22.41 10.13L22.41 10.13L22.41 10.13Q22.41 10.60 22.50 10.94L22.50 10.94L22.50 10.94Q22.93 12.41 24.18 12.41L24.18 12.41L24.18 12.41Q25.44 12.41 26.52 10.94L26.52 10.94L28.27 10.20ZM30.56 13.71L30.49 13.71L32.67 4.28L31.84 4.28L31.84 4.28Q31.03 4.28 30.65 5.08L30.65 5.08L30.58 5.08L29.67 4.59L29.67 4.59Q30.41 3.12 32.12 3.12L32.12 3.12L37.23 3.12L37.21 3.19L36.44 4.28L34.04 4.28L32.00 13.10L30.56 13.71Z"></path></g><!----><!----></svg>